<?xml version="1.0" encoding="UTF-8" standalone="no"?>
<svg
   xmlns:dc="http://purl.org/dc/elements/1.1/"
   xmlns:cc="http://creativecommons.org/ns#"
   xmlns:rdf="http://www.w3.org/1999/02/22-rdf-syntax-ns#"
   xmlns:svg="http://www.w3.org/2000/svg"
   xmlns="http://www.w3.org/2000/svg"
   xmlns:sodipodi="http://sodipodi.sourceforge.net/DTD/sodipodi-0.dtd"
   xmlns:inkscape="http://www.inkscape.org/namespaces/inkscape"
   viewBox="0 0 100 100"
   style="overflow: visible"
   version="1.1"
   id="svg60"
   sodipodi:docname="iconfinder_mark-github_298822.svg"
   inkscape:version="0.92.3 (2405546, 2018-03-11)">
  <path
     d="M 50,0 C 22.3877,0 0,22.38769 0,50 c 0,22.09472 14.325,40.83252 34.19492,47.44258 2.49942,0.45781 3.41192,-1.08643 3.41192,-2.40479 0,-1.19023 -0.0458,-5.13301 -0.0702,-9.30781 -13.90381,3.02119 -16.84267,-5.896 -16.84267,-5.896 -2.27657,-5.77392 -5.55118,-7.31201 -5.55118,-7.31201 -4.54404,-3.10059 0.34473,-3.03955 0.34473,-3.03955 5.02012,0.34785 7.66309,5.15137 7.66309,5.15137 4.46171,7.6416 11.70654,5.43213 14.55078,4.15039 0.45449,-3.22266 1.74843,-5.43213 3.17383,-6.67725 -11.09922,-1.26338 -22.7752,-5.5542 -22.7752,-24.71318 0,-5.4627 1.9501,-9.91817 5.14219,-13.41856 -0.50967,-1.26953 -2.23086,-6.35683 0.49433,-13.23847 0,0 4.19317,-1.34278 13.75118,5.12695 3.98554,-1.11387 8.26113,-1.66318 12.5122,-1.68154 4.24805,0.0184 8.52656,0.57373 12.51836,1.68759 9.53985,-6.47578 13.73906,-5.12695 13.73906,-5.12695 2.73438,6.88779 1.01319,11.96895 0.50049,13.23242 3.2043,3.50039 5.13916,7.95596 5.13916,13.41856 0,19.20781 -11.69433,23.4375 -22.8332,24.67656 1.80059,1.55029 3.39355,4.58984 3.39355,9.25293 0,6.6834 -0.0672,12.07275 -0.0672,13.7207 0,1.33057 0.90937,2.88692 3.44238,2.39864 C 85.6873,90.82031 100,72.08252 100,50 100,22.38769 77.6123,0 50,0 Z"
     id="path58"
     style="stroke-width:0.09765625" />
</svg>
